<?xml version="1.0" standalone="no"?>
<!DOCTYPE svg PUBLIC "-//W3C//DTD SVG 20010904//EN"
 "http://www.w3.org/TR/2001/REC-SVG-20010904/DTD/svg10.dtd">
<svg version="1.0" xmlns="http://www.w3.org/2000/svg"
 width="1572.000000pt" height="1572.000000pt" viewBox="0 0 1572.000000 1572.000000"
 preserveAspectRatio="xMidYMid meet">
<metadata>
Created by potrace 1.14, written by Peter Selinger 2001-2017
</metadata>
<g transform="translate(0.000000,1572.000000) scale(0.100000,-0.100000)"
fill="#000000" stroke="none">
<path d="M7459 14919 c-188 -16 -213 -34 -593 -439 -356 -380 -314 -333 -1366
-1505 -173 -192 -389 -433 -481 -535 -174 -194 -2140 -2380 -2598 -2890 -146
-162 -362 -403 -481 -535 -901 -1002 -1020 -1138 -1122 -1291 -116 -173 -257
-466 -353 -729 -116 -320 -267 -893 -284 -1075 -17 -184 -14 -794 5 -942 45
-354 204 -766 429 -1113 184 -284 537 -637 848 -846 208 -140 265 -163 762
-309 116 -34 260 -77 322 -96 61 -19 149 -45 195 -58 45 -14 245 -73 443 -131
198 -59 380 -113 405 -120 103 -29 671 -198 740 -220 41 -13 129 -39 195 -58
312 -92 1056 -312 1290 -382 99 -29 275 -81 390 -116 116 -34 320 -94 455
-135 135 -40 362 -107 505 -149 143 -42 287 -85 320 -95 88 -27 368 -109 630
-185 127 -37 280 -82 340 -100 191 -59 499 -133 591 -143 155 -17 261 10 376
95 124 90 -17 -77 4284 5093 1402 1685 1722 2079 1772 2180 26 53 27 61 27
220 l0 165 -43 135 c-55 173 -64 264 -60 570 l3 245 55 195 c53 192 54 197 55
330 l0 135 -39 79 c-53 109 -170 228 -276 280 -167 81 -402 67 -560 -34 -184
-118 -297 -372 -400 -895 -16 -80 -23 -163 -27 -306 -6 -209 4 -345 37 -514
10 -55 22 -130 26 -165 l6 -65 -60 -80 c-106 -140 -491 -605 -2072 -2505
-2008 -2413 -2287 -2747 -2525 -3035 -425 -513 -727 -865 -742 -865 -28 0
-457 119 -758 210 -71 22 -285 85 -475 141 -190 55 -406 119 -480 141 -204 61
-269 80 -465 137 -99 29 -306 90 -460 136 -154 46 -649 192 -1100 325 -451
133 -932 275 -1070 316 -137 41 -297 88 -355 105 -58 17 -132 39 -165 49 -33
10 -217 64 -410 120 -192 56 -384 112 -425 125 -41 13 -145 44 -230 69 -215
63 -415 132 -480 167 -190 101 -399 327 -513 554 -146 293 -210 748 -161 1164
35 306 113 491 273 652 176 176 388 216 731 140 229 -51 245 -55 1875 -521
517 -148 1122 -321 1345 -385 223 -64 677 -195 1010 -290 333 -96 857 -247
1165 -336 308 -89 592 -170 630 -181 102 -29 393 -37 467 -13 139 45 283 184
769 745 74 85 254 292 400 460 145 168 312 359 369 426 58 66 271 311 475 545
436 501 815 936 1090 1254 350 404 701 809 1025 1180 173 199 430 494 570 655
140 162 318 366 395 454 77 89 273 314 435 501 162 187 371 428 465 535 448
512 652 764 705 870 13 25 29 68 36 95 19 68 18 237 -1 310 -48 185 -176 337
-334 398 -109 42 -51 29 -2256 521 -506 113 -1073 239 -1260 281 -187 42 -549
123 -805 180 -497 111 -1138 254 -1835 410 -1119 250 -1197 267 -1330 284
-116 15 -200 18 -286 10z m151 -2358 c52 -11 235 -54 405 -96 171 -42 375 -91
455 -110 80 -19 303 -73 495 -120 193 -47 406 -100 475 -116 69 -17 271 -66
450 -110 179 -43 539 -131 800 -195 818 -199 1222 -301 1312 -332 199 -67 283
-169 234 -285 -37 -89 -359 -480 -534 -649 -182 -175 -269 -208 -544 -208
l-143 0 -470 116 c-259 63 -551 135 -650 159 -739 176 -2945 720 -3130 771
-283 78 -314 90 -383 149 -77 66 -102 156 -66 228 63 123 412 537 574 680 69
61 166 111 256 131 92 21 332 14 464 -13z"/>
</g>
</svg>
